<svg width="734" height="486" viewBox="0 0 734 486" fill="none" xmlns="http://www.w3.org/2000/svg">
<path d="M602.462 0.0275432L668.621 0L668.683 36.7003L699.996 36.685L700.045 105.223L733.624 105.248L733.599 324.934C722.535 325.087 711.195 324.946 700.1 324.934C699.922 336.06 700.039 347.387 699.947 358.55C680.929 357.772 655.794 358.568 636.365 358.58C636.163 369.951 636.341 381.811 636.341 393.225L610.391 393.292C610.85 404.442 611.524 415.574 612.406 426.699C620.556 426.693 629.856 426.883 637.878 426.313L644.717 471.826L563.611 485.542L554.665 425.015L479.413 425.138C479.082 445.203 479.499 465.281 479.101 485.456L392.766 485.45L392.601 425.07L280.32 425.064C280.545 433.992 281.219 446.985 282.374 455.729L295.594 456.035L295.777 485.395C273.899 484.782 248.221 485.468 226.049 485.487L225.888 454.902C214.194 454.988 202.5 455.006 190.805 454.969C190.388 464.448 190.811 475.659 190.697 485.438L112.486 485.468C112.205 465.758 111.484 446.44 111.465 426.693L128.124 426.583C128.473 415.757 128.212 404.228 128.141 393.341C138.511 393.237 148.882 393.2 159.253 393.225C159.905 362.297 159.322 329.239 159.327 298.134L63.8132 298.146C63.9675 287.106 64.0067 276.066 63.9314 265.026L31.868 264.928L31.9072 230.896L0.0116414 230.939L0 164.094L63.8762 164.136C63.9283 175.349 63.7519 186.339 64.0838 197.575C74.5456 197.538 85.0075 197.556 95.4693 197.636L95.5257 230.896L214.398 231.037L214.42 197.52L303.68 197.538C304.012 166.98 303.692 135.809 303.688 105.201L337.549 105.277L337.541 36.6422L371.483 36.6991L371.577 0.0312431L437.342 0.0373721L437.385 36.7064L471.245 36.693C470.78 48.2068 471.312 59.846 470.878 71.4468L471.98 69.4439C476.437 68.8739 482.916 69.6092 487.63 69.4678C506.104 68.9149 524.644 69.1464 543.111 69.7875C547.091 69.9258 564.383 68.6283 566.183 69.5168L567.138 71.5239C566.605 60.8092 566.985 47.535 567.009 36.6348L602.505 36.6966L602.462 0.0275432Z" fill="#F3BC50"/>
<path d="M624.75 180.589L661.341 180.608L661.274 256.999L624.75 257.06C624.419 231.821 624.645 205.835 624.75 180.589Z" fill="#1B1A19"/>
<path d="M421.52 180.577C433.588 180.736 445.871 180.614 457.958 180.602C458.301 205.712 457.958 231.846 457.94 257.024L421.489 256.974C421.324 231.509 421.336 206.043 421.52 180.577Z" fill="#1B1A19"/>
<path d="M524.173 248.647L557.635 248.574C557.666 254.158 557.666 259.736 557.629 265.32L574.731 265.277L574.639 283.616L555.884 283.518L506.483 283.671V265.296L524.093 265.21L524.173 248.647Z" fill="#1B1A19"/>
</svg>
